<svg width="24" height="22" viewBox="0 0 24 22" fill="none" xmlns="http://www.w3.org/2000/svg">
<path d="M5.31563 21.425L12 17.9075L18.6844 21.4213C18.7153 21.4374 18.7501 21.4446 18.7848 21.4421C18.8196 21.4396 18.853 21.4274 18.8813 21.407C18.9095 21.3865 18.9315 21.3586 18.9447 21.3263C18.958 21.2941 18.962 21.2588 18.9562 21.2244L17.6812 13.7806L23.0869 8.51C23.1116 8.48559 23.1291 8.45479 23.1373 8.42104C23.1455 8.38728 23.1443 8.3519 23.1336 8.31884C23.1229 8.28578 23.1032 8.25635 23.0767 8.23382C23.0503 8.21129 23.0181 8.19655 22.9837 8.19125L15.51 7.10375L12.1688 0.333127C12.1534 0.301426 12.1294 0.274691 12.0996 0.255984C12.0697 0.237277 12.0352 0.227356 12 0.227356C11.9648 0.227356 11.9303 0.237277 11.9004 0.255984C11.8706 0.274691 11.8466 0.301426 11.8313 0.333127L8.49 7.10563L1.01625 8.19313C0.98191 8.19842 0.949718 8.21316 0.923266 8.23569C0.896813 8.25822 0.877142 8.28766 0.866446 8.32072C0.85575 8.35378 0.854451 8.38916 0.862694 8.42291C0.870936 8.45667 0.888396 8.48747 0.913125 8.51188L6.31875 13.7825L5.04188 21.2263C5.03616 21.2607 5.04015 21.296 5.0534 21.3282C5.06664 21.3605 5.08863 21.3884 5.11687 21.4089C5.14511 21.4293 5.1785 21.4415 5.21328 21.444C5.24806 21.4465 5.28285 21.4393 5.31375 21.4231L5.31563 21.425Z" fill="#A79749"/>
</svg>
